<svg width="168" height="168" viewBox="0 0 168 168" fill="none" xmlns="http://www.w3.org/2000/svg">
<rect width="168" height="168" rx="24" fill="#E7E7DF"/>
<g clip-path="url(#clip0_36_38)">
<path d="M99.6779 87.4438C99.6779 91.4996 98.0667 95.3893 95.1988 98.2572C92.3309 101.125 88.4413 102.736 84.3854 102.736C80.3296 102.736 76.44 101.125 73.5721 98.2572C70.7042 95.3893 69.093 91.4996 69.093 87.4438C69.093 83.388 70.7042 79.4983 73.5721 76.6304C76.44 73.7625 80.3296 72.1514 84.3854 72.1514C88.4413 72.1514 92.3309 73.7625 95.1988 76.6304C98.0667 79.4983 99.6779 83.388 99.6779 87.4438Z" fill="#B9B9B5"/>
<path d="M47.6837 59.9175C44.439 59.9175 41.3273 61.2064 39.0329 63.5007C36.7386 65.795 35.4497 68.9068 35.4497 72.1514V108.853C35.4497 112.098 36.7386 115.21 39.0329 117.504C41.3273 119.798 44.439 121.087 47.6837 121.087H121.087C124.332 121.087 127.444 119.798 129.738 117.504C132.032 115.21 133.321 112.098 133.321 108.853V72.1514C133.321 68.9068 132.032 65.795 129.738 63.5007C127.444 61.2064 124.332 59.9175 121.087 59.9175H113.918C110.674 59.9168 107.563 58.6274 105.269 56.3329L100.204 51.2681C97.9102 48.9736 94.799 47.6842 91.5546 47.6835H77.2164C73.972 47.6842 70.8608 48.9736 68.567 51.2681L63.5021 56.3329C61.2084 58.6274 58.0971 59.9168 54.8527 59.9175H47.6837ZM50.7421 72.1514C49.931 72.1514 49.153 71.8292 48.5795 71.2556C48.0059 70.682 47.6837 69.9041 47.6837 69.0929C47.6837 68.2818 48.0059 67.5038 48.5795 66.9303C49.153 66.3567 49.931 66.0344 50.7421 66.0344C51.5533 66.0344 52.3312 66.3567 52.9048 66.9303C53.4784 67.5038 53.8006 68.2818 53.8006 69.0929C53.8006 69.9041 53.4784 70.682 52.9048 71.2556C52.3312 71.8292 51.5533 72.1514 50.7421 72.1514ZM105.795 87.4439C105.795 93.122 103.539 98.5675 99.5242 102.583C95.5092 106.598 90.0636 108.853 84.3855 108.853C78.7074 108.853 73.2618 106.598 69.2467 102.583C65.2317 98.5675 62.9761 93.122 62.9761 87.4439C62.9761 81.7657 65.2317 76.3202 69.2467 72.3051C73.2618 68.2901 78.7074 66.0344 84.3855 66.0344C90.0636 66.0344 95.5092 68.2901 99.5242 72.3051C103.539 76.3202 105.795 81.7657 105.795 87.4439Z" fill="#B9B9B5"/>
</g>
<defs>
<clipPath id="clip0_36_38">
<rect width="97.8716" height="97.8716" fill="white" transform="translate(35.4497 35.4495)"/>
</clipPath>
</defs>
</svg>
