<svg width="16" height="16" viewBox="0 0 16 16" fill="none" xmlns="http://www.w3.org/2000/svg">
<path d="M5.33722 14H2.27656C2.12613 13.9996 2.00425 13.8778 2.00391 13.7273V2.27266C2.00428 2.12222 2.12613 2.00034 2.27656 2H5.33722C5.8895 2 6.33722 1.55228 6.33722 1C6.33722 0.447719 5.8895 0 5.33722 0H2.27656C1.022 0.00146875 0.005375 1.01812 0.00390625 2.27266V13.7273C0.005375 14.9819 1.022 15.9985 2.27656 16H5.33722C5.8895 16 6.33722 15.5523 6.33722 15C6.33722 14.4477 5.8895 14 5.33722 14Z" fill="#171802"/>
<path d="M15.1225 5.87863L12.5345 3.29263C12.1438 2.90216 11.5106 2.90232 11.1201 3.29297C10.7297 3.68363 10.7298 4.31685 11.1205 4.70732L13.3951 6.98132L4.33447 6.99997C3.78219 6.99997 3.33447 7.44769 3.33447 7.99997C3.33447 8.55225 3.78219 8.99997 4.33447 8.99997L13.4318 8.98332L11.1205 11.2947C10.7442 11.6989 10.7668 12.3317 11.171 12.708C11.5553 13.0656 12.1506 13.0653 12.5345 12.7073L15.1205 10.1213C16.2921 8.94975 16.2921 7.05025 15.1205 5.87869L15.1205 5.87866L15.1225 5.87863Z" fill="#171802"/>
</svg>
