<svg width="16" height="16" viewBox="0 0 16 16" fill="none" xmlns="http://www.w3.org/2000/svg">
<path fill-rule="evenodd" clip-rule="evenodd" d="M16 4.01519V0.81519C16.0018 0.696496 15.9773 0.57888 15.9283 0.470737C15.8794 0.362595 15.8071 0.266595 15.7168 0.18959C15.6263 0.1128 15.5198 0.0571571 15.4051 0.0267114C15.2903 -0.00373435 15.1703 -0.00821704 15.0536 0.0135896L5.48161 1.60799C5.28973 1.63702 5.11489 1.73466 4.98955 1.88281C4.8642 2.03096 4.79685 2.21955 4.8 2.41359V10.0288C4.18995 9.67657 3.48072 9.5355 2.78231 9.62745C2.0839 9.7194 1.43535 10.0392 0.937248 10.5373C0.439142 11.0355 0.119317 11.684 0.027377 12.3824C-0.0645633 13.0808 0.0765192 13.7901 0.428743 14.4001C0.780968 15.0102 1.32465 15.4869 1.97546 15.7565C2.62628 16.0261 3.34786 16.0734 4.02828 15.891C4.70871 15.7087 5.30996 15.3069 5.73878 14.7481C6.1676 14.1892 6.40002 13.5044 6.4 12.8V6.27679L14.4 4.94399V8.42799C13.79 8.07579 13.0808 7.93471 12.3824 8.02664C11.684 8.11856 11.0355 8.43834 10.5374 8.9364C10.0393 9.43446 9.71942 10.083 9.62742 10.7813C9.53541 11.4797 9.67641 12.1889 10.0285 12.799C10.3807 13.409 10.9243 13.8859 11.575 14.1555C12.2257 14.4252 12.9473 14.4726 13.6277 14.2904C14.3081 14.1082 14.9094 13.7066 15.3384 13.1478C15.7673 12.5891 15.9998 11.9044 16 11.2V4.01519Z" fill="#171802"/>
</svg>
