<svg width="11" height="15" viewBox="0 0 11 15" fill="none" xmlns="http://www.w3.org/2000/svg">
<path d="M9.99753 5.28884L6.6 6.45751V11.5927C6.59978 12.3525 6.35376 13.0904 5.90102 13.6893C5.44828 14.2881 4.81477 14.7136 4.10114 14.898C3.3875 15.0825 2.63465 15.0154 1.96216 14.7073C1.28968 14.3993 0.736136 13.8681 0.389446 13.1979C0.0427561 12.5278 -0.0771951 11.7572 0.0486453 11.0087C0.174486 10.2601 0.538902 9.57636 1.08401 9.06615C1.62912 8.55594 2.32366 8.24848 3.05731 8.1926C3.79097 8.13673 4.52166 8.33564 5.13334 8.75774V3.21734C5.13333 2.74048 5.27858 2.2757 5.54852 1.88884C5.81846 1.50197 6.1994 1.21262 6.6374 1.06177L9.5524 0.0582149C9.71774 0.00133938 9.89379 -0.0141506 10.0661 0.0130207C10.2383 0.0401921 10.4019 0.109247 10.5432 0.214498C10.6846 0.319748 10.7997 0.458182 10.8792 0.618394C10.9586 0.778607 11 0.956013 11 1.136V3.85129C11.0001 4.16925 10.9034 4.47919 10.7235 4.7372C10.5435 4.99521 10.2896 5.1882 9.99753 5.28884Z" fill="#171802"/>
</svg>
